<svg width="33" height="19" viewBox="0 0 33 19" fill="none" xmlns="http://www.w3.org/2000/svg">
<path d="M32.2508 1.89451C32.4756 1.21364 32.2508 0.712509 31.1692 0.712509H27.5902C26.6787 0.712509 26.2594 1.14282 26.0346 1.62216C26.0346 1.62216 24.2117 5.60394 21.6353 8.18582C20.8028 8.93207 20.42 9.17174 19.9643 9.17174C19.7395 9.17174 19.3931 8.93207 19.3931 8.25119V1.89451C19.3931 1.07746 19.1379 0.712509 18.3844 0.712509H12.7577C12.1865 0.712509 11.8462 1.0938 11.8462 1.44786C11.8462 2.22133 13.1344 2.40109 13.2681 4.5799V9.30791C13.2681 10.3428 13.0615 10.5335 12.6058 10.5335C11.3905 10.5335 8.43739 6.53538 6.68739 1.95988C6.33496 1.07201 5.98861 0.712509 5.07107 0.712509H1.49208C0.471246 0.712509 0.264648 1.14282 0.264648 1.62216C0.264648 2.4719 1.47993 6.69334 5.92177 12.2711C8.88097 16.0786 13.0494 18.143 16.841 18.143C19.1197 18.143 19.3992 17.6854 19.3992 16.8956C19.3992 13.257 19.1926 12.9138 20.335 12.9138C20.8636 12.9138 21.7751 13.1535 23.9018 14.9892C26.3324 17.168 26.7334 18.143 28.0945 18.143H31.6735C32.6943 18.143 33.2108 17.6854 32.9131 16.7812C32.2325 14.8802 27.6327 10.9693 27.4261 10.7078C26.8975 10.0977 27.0494 9.82538 27.4261 9.28068C27.4322 9.27523 31.8011 3.76284 32.2508 1.89451Z" fill="black"/>
</svg>
